<svg width="24" height="24" viewBox="0 0 24 24" fill="none" xmlns="http://www.w3.org/2000/svg">
<g clip-path="url(#clip0_26_2609)">
<path d="M15.55 13C16.3 13 16.96 12.59 17.3 11.97L20.88 5.48C21.25 4.82 20.77 4 20.01 4H5.21L4.27 2H1V4H3L6.6 11.59L5.25 14.03C4.52 15.37 5.48 17 7 17H19V15H7L8.1 13H15.55ZM6.16 6H18.31L15.55 11H8.53L6.16 6ZM7 18C5.9 18 5.01 18.9 5.01 20C5.01 21.1 5.9 22 7 22C8.1 22 9 21.1 9 20C9 18.9 8.1 18 7 18ZM17 18C15.9 18 15.01 18.9 15.01 20C15.01 21.1 15.9 22 17 22C18.1 22 19 21.1 19 20C19 18.9 18.1 18 17 18Z" fill="black"/>
<rect x="12" width="12" height="12" rx="6" fill="#FF3A3A"/>
<path d="M16.344 3.72V9H15.24V4.968L14.096 5.704L13.592 4.88L15.336 3.72H16.344ZM18.2806 4.28C18.6272 3.84267 19.1392 3.624 19.8166 3.624C20.4939 3.624 21.0032 3.84267 21.3446 4.28C21.6912 4.71733 21.8646 5.42133 21.8646 6.392C21.8646 7.35733 21.6939 8.05067 21.3526 8.472C21.0112 8.888 20.4992 9.096 19.8166 9.096C19.1339 9.096 18.6219 8.888 18.2806 8.472C17.9392 8.05067 17.7686 7.35733 17.7686 6.392C17.7686 5.42133 17.9392 4.71733 18.2806 4.28ZM20.7286 6.368C20.7286 5.70667 20.6592 5.24533 20.5206 4.984C20.3819 4.71733 20.1472 4.584 19.8166 4.584C19.4912 4.584 19.2566 4.71733 19.1126 4.984C18.9739 5.25067 18.9046 5.712 18.9046 6.368C18.9046 7.024 18.9766 7.48267 19.1206 7.744C19.2646 8.00533 19.4992 8.136 19.8246 8.136C20.1499 8.136 20.3819 8.00533 20.5206 7.744C20.6592 7.48267 20.7286 7.024 20.7286 6.368Z" fill="white"/>
</g>
<defs>
<clipPath id="clip0_26_2609">
<rect width="24" height="24" fill="white"/>
</clipPath>
</defs>
</svg>
